<?xml version="1.0" encoding="utf-8"?>
<!-- Generator: Adobe Illustrator 27.8.1, SVG Export Plug-In . SVG Version: 6.00 Build 0)  -->
<svg version="1.1" id="Capa_1" xmlns="http://www.w3.org/2000/svg" xmlns:xlink="http://www.w3.org/1999/xlink" x="0px" y="0px"
	 viewBox="0 0 500 412" style="enable-background:new 0 0 500 412;" xml:space="preserve">
<style type="text/css">
	.st0{fill:#502214;}
</style>
<path class="st0" d="M52.4,7.5h395.5c23.8,0,43.1,19.3,43.1,43.1l0,0c0,23.8-19.3,43.1-43.1,43.1H52.4c-23.8,0-43.1-19.3-43.1-43.1
	l0,0C9.2,26.8,28.5,7.5,52.4,7.5z"/>
<path class="st0" d="M52.4,162.7h395.5c23.8,0,43.1,19.3,43.1,43.1l0,0c0,23.8-19.3,43.1-43.1,43.1H52.4
	c-23.8,0-43.1-19.3-43.1-43.1l0,0C9.2,182.1,28.5,162.7,52.4,162.7z"/>
<path class="st0" d="M52.4,318h395.5c23.8,0,43.1,19.3,43.1,43.1l0,0c0,23.8-19.3,43.1-43.1,43.1H52.4c-23.8,0-43.1-19.3-43.1-43.1
	l0,0C9.2,337.3,28.5,318,52.4,318z"/>
</svg>
