<?xml version="1.0" encoding="utf-8"?>
<!-- Generator: Adobe Illustrator 27.8.1, SVG Export Plug-In . SVG Version: 6.00 Build 0)  -->
<svg version="1.1" id="Capa_1" xmlns="http://www.w3.org/2000/svg" xmlns:xlink="http://www.w3.org/1999/xlink" x="0px" y="0px"
	 viewBox="0 0 500 412" style="enable-background:new 0 0 500 412;" xml:space="preserve">
<style type="text/css">
	.st0{fill:#502214;}
</style>
<path class="st0" d="M376.5,249h-327C26,249,7,230,7,206.5S26,164,49.5,164h327c23.5,0,42.5,19,42.5,42.5S400,249,376.5,249z"/>
<path class="st0" d="M452.5,94h-403C26,94,7,75,7,51.5S26,9,49.5,9h403C476,9,495,28,495,51.5S476,94,452.5,94z"/>
<path class="st0" d="M452.5,404h-403C26,404,7,385,7,361.5S26,319,49.5,319h403c23.5,0,42.5,19,42.5,42.5S476,404,452.5,404z"/>
</svg>
